<svg width="36.77" height="40" viewBox="0 0 38 40" fill="none" xmlns="http://www.w3.org/2000/svg">
<path d="M0.386963 18.3856C0.386963 8.23151 8.61847 0 18.7726 0C28.9266 0 37.1581 8.23151 37.1581 18.3856V21.6144C37.1581 31.7685 28.9266 40 18.7726 40C8.61847 40 0.386963 31.7685 0.386963 21.6144V18.3856Z" fill="white" fill-opacity="0.01"/>
<path d="M18.766 5V5C11.1539 5 4.98315 11.1708 4.98315 18.7828V21.2108C4.98315 28.8264 11.1568 35 18.7723 35V35" stroke="black" stroke-width="3" stroke-linecap="round" stroke-linejoin="round"/>
<path d="M25.6672 27.5V27.5C29.5652 23.2597 29.5652 16.7403 25.6672 12.5V12.5" stroke="black" stroke-width="3" stroke-linecap="round" stroke-linejoin="round"/>
<path d="M12.644 19.9932H32.5618" stroke="black" stroke-width="3" stroke-linecap="round" stroke-linejoin="round"/>
</svg>
